<?xml version="1.0" standalone="no"?>
<!DOCTYPE svg PUBLIC "-//W3C//DTD SVG 20010904//EN"
 "http://www.w3.org/TR/2001/REC-SVG-20010904/DTD/svg10.dtd">
<svg version="1.0" xmlns="http://www.w3.org/2000/svg"
 width="200.000000pt" height="200.000000pt" viewBox="0 0 200.000000 200.000000"
 preserveAspectRatio="xMidYMid meet">
<metadata>
Created by potrace 1.10, written by Peter Selinger 2001-2011
</metadata>
<g transform="translate(0.000000,200.000000) scale(0.100000,-0.100000)"
fill="#000000" stroke="none">
<path d="M463 1520 c-61 -37 -63 -49 -63 -363 0 -278 0 -285 23 -318 16 -24
36 -38 69 -49 l47 -15 3 -95 c3 -81 6 -95 20 -98 10 -2 79 40 158 97 l140 101
215 0 c241 0 271 6 305 62 19 31 20 50 20 316 0 313 -2 325 -63 362 -30 19
-53 20 -437 20 -384 0 -407 -1 -437 -20z m849 -67 c17 -15 18 -37 18 -291 0
-242 -2 -278 -17 -294 -15 -16 -36 -18 -244 -18 l-228 0 -105 -76 c-58 -41
-108 -79 -111 -85 -16 -26 -23 -2 -18 61 7 84 -2 100 -60 100 -78 0 -77 -3
-77 308 0 242 2 278 17 294 15 17 41 18 411 18 354 0 397 -2 414 -17z"/>
<path d="M628 1213 c-8 -10 -18 -24 -22 -30 -7 -13 10 -53 28 -65 34 -23 96
10 96 52 0 48 -71 78 -102 43z"/>
<path d="M862 1214 c-42 -29 -16 -104 37 -104 54 0 82 68 43 103 -23 21 -51
22 -80 1z"/>
<path d="M1091 1204 c-11 -15 -21 -33 -21 -40 0 -22 38 -54 63 -54 28 0 41 9
57 39 10 20 9 27 -7 50 -28 37 -65 39 -92 5z"/>
<path d="M1452 1412 c-23 -15 -10 -57 18 -60 14 -2 33 -11 43 -19 15 -15 17
-42 17 -294 0 -315 1 -309 -75 -309 -58 0 -70 -21 -62 -107 4 -35 4 -63 2 -63
-2 0 -56 38 -120 85 l-117 85 -153 0 c-127 0 -155 -3 -166 -16 -9 -11 -10 -20
-2 -32 8 -14 35 -18 159 -22 l149 -5 138 -98 c77 -56 145 -97 155 -95 14 3 17
17 20 101 3 90 4 97 23 97 33 0 79 29 99 63 19 30 20 52 20 310 0 299 -4 330
-52 361 -31 20 -79 29 -96 18z"/>
</g>
</svg>
