<?xml version="1.0" standalone="no"?>
<!DOCTYPE svg PUBLIC "-//W3C//DTD SVG 20010904//EN"
 "http://www.w3.org/TR/2001/REC-SVG-20010904/DTD/svg10.dtd">
<svg version="1.0" xmlns="http://www.w3.org/2000/svg"
 width="300.000000pt" height="300.000000pt" viewBox="0 0 300.000000 300.000000"
 preserveAspectRatio="xMidYMid meet">
<metadata>
Created by potrace 1.10, written by Peter Selinger 2001-2011
</metadata>
<g transform="translate(0.000000,300.000000) scale(0.100000,-0.100000)"
fill="#000000" stroke="none">
<path d="M1899 2406 c-14 -7 -91 -62 -170 -122 l-144 -109 -265 -5 -265 -5
-53 -29 c-80 -45 -132 -128 -132 -212 0 -29 -4 -34 -23 -34 -44 0 -122 -30
-160 -61 -21 -17 -50 -54 -65 -83 l-27 -51 0 -335 c0 -331 0 -336 23 -382 46
-93 140 -148 254 -148 l58 0 0 -77 c0 -61 5 -85 20 -111 25 -41 80 -66 124
-57 17 4 101 59 186 124 l155 116 265 5 c248 5 268 6 306 27 82 44 134 118
142 206 4 40 8 47 26 47 44 0 122 30 159 61 21 17 50 54 65 83 l27 51 0 335
c0 331 0 336 -23 382 -46 93 -140 148 -254 148 l-58 0 0 78 c0 91 -21 135 -75
158 -43 17 -63 18 -96 0z m102 -55 c20 -16 24 -30 27 -97 5 -96 24 -124 83
-124 107 0 190 -44 229 -121 19 -36 20 -60 20 -364 0 -271 -3 -332 -15 -363
-29 -69 -89 -113 -172 -127 -52 -8 -73 -31 -84 -92 -14 -73 -56 -132 -114
-162 -48 -25 -55 -26 -310 -31 l-261 -5 -158 -118 c-175 -130 -203 -141 -251
-92 -22 21 -25 33 -25 96 0 89 -20 119 -81 119 -107 0 -190 44 -229 121 -19
36 -20 60 -20 369 0 309 1 333 20 369 32 64 88 102 172 116 43 7 78 45 78 85
0 14 12 51 28 81 20 40 39 61 76 84 l49 30 266 5 266 5 135 101 c74 55 146
108 160 117 32 22 82 22 111 -2z"/>
<path d="M1760 2220 l-162 -120 -256 0 c-247 0 -258 -1 -296 -23 -57 -32 -97
-87 -103 -139 -4 -37 -1 -46 22 -68 l27 -25 482 -5 c453 -5 484 -6 511 -24 41
-27 64 -54 86 -101 16 -35 19 -67 19 -261 l0 -221 26 -28 c21 -23 31 -27 61
-22 50 8 105 49 134 100 l24 42 0 315 0 315 -27 47 c-43 72 -84 92 -203 98
l-100 5 -3 95 c-2 80 -6 98 -24 117 -12 13 -29 23 -39 23 -9 0 -90 -54 -179
-120z m200 -29 c0 -75 4 -112 13 -119 6 -6 60 -12 119 -14 115 -3 138 -12 182
-72 20 -26 21 -40 21 -346 0 -306 -1 -320 -21 -346 -30 -41 -65 -64 -107 -71
l-37 -6 0 228 c0 146 -4 242 -12 267 -15 50 -78 122 -132 151 -40 22 -48 22
-523 25 l-483 3 0 33 c0 43 36 96 80 118 31 16 68 18 295 18 l260 1 165 123
c90 69 168 122 172 120 5 -3 8 -54 8 -113z"/>
<path d="M799 1810 c-45 -13 -79 -42 -107 -89 l-27 -46 0 -315 0 -315 27 -47
c43 -72 84 -92 203 -98 l100 -5 3 -95 c2 -80 6 -98 24 -117 12 -13 29 -23 39
-23 9 0 90 54 179 120 l162 120 254 0 c231 0 258 2 292 19 47 24 77 56 97 103
22 55 22 621 0 676 -21 49 -52 81 -100 103 -37 17 -75 19 -580 18 -297 0 -552
-4 -566 -9z m1141 -52 c79 -40 80 -46 80 -404 0 -306 0 -312 -22 -344 -46 -67
-63 -70 -353 -70 l-260 -1 -165 -123 c-90 -69 -168 -122 -172 -120 -5 3 -8 54
-8 113 0 75 -4 112 -12 119 -7 6 -61 12 -120 14 -115 3 -138 12 -182 72 -20
26 -21 43 -24 309 -2 155 -1 301 3 324 7 49 45 100 90 119 24 10 143 13 565
14 l536 0 44 -22z"/>
<path d="M1070 1400 c-11 -11 -20 -29 -20 -40 0 -11 9 -29 20 -40 11 -11 29
-20 40 -20 11 0 29 9 40 20 11 11 20 29 20 40 0 11 -9 29 -20 40 -11 11 -29
20 -40 20 -11 0 -29 -9 -40 -20z"/>
<path d="M1321 1393 c-33 -40 -7 -93 44 -93 51 0 74 75 33 104 -32 23 -54 20
-77 -11z"/>
<path d="M1582 1404 c-42 -29 -18 -104 35 -104 47 0 71 71 35 103 -23 21 -41
21 -70 1z"/>
</g>
</svg>
